HIERARCHY
ROOT Hips
{
	OFFSET 0.00000 0.00000 0.00000
	CHANNELS 6 Xposition Yposition Zposition Zrotation Yrotation Xrotation 
	JOINT LHipJoint
	{
		OFFSET 0 0 0
		CHANNELS 3 Zrotation Yrotation Xrotation
		JOINT LeftHip
		{
			OFFSET 1.36337 -1.57426 1.11036
			CHANNELS 3 Zrotation Yrotation Xrotation
			JOINT LeftKnee
			{
				OFFSET 2.38468 -6.55187 0.00000
				CHANNELS 3 Zrotation Yrotation Xrotation
				JOINT LeftAnkle
				{
					OFFSET 2.37166 -6.51609 0.00000
					CHANNELS 3 Zrotation Yrotation Xrotation
					JOINT LeftToe
					{
						OFFSET 0.29078 -0.79891 2.01393
						CHANNELS 3 Zrotation Yrotation Xrotation
						End Site
						{
							OFFSET 0.00000 -0.00000 1.07924
						}
					}
				}
			}
		}
	}
	JOINT RHipJoint
	{
		OFFSET 0 0 0
		CHANNELS 3 Zrotation Yrotation Xrotation
		JOINT RightHip
		{
			OFFSET -1.36349 -1.57426 1.11036
			CHANNELS 3 Zrotation Yrotation Xrotation
			JOINT RightKnee
			{
				OFFSET -2.29562 -6.30717 0.00000
				CHANNELS 3 Zrotation Yrotation Xrotation
				JOINT RightAnkle
				{
					OFFSET -2.40985 -6.62100 0.00000
					CHANNELS 3 Zrotation Yrotation Xrotation
					JOINT RightToe
					{
						OFFSET -0.23197 -0.63733 1.92232
						CHANNELS 3 Zrotation Yrotation Xrotation
						End Site
						{
							OFFSET -0.00000 -0.00000 1.01562
						}
					}
				}
			}
		}
	}
	JOINT lowerback
	{
		OFFSET 0 0 0
		CHANNELS 3 Zrotation Yrotation Xrotation
		JOINT Chest
		{
			OFFSET -0.08565 2.03602 -0.24562
			CHANNELS 3 Zrotation Yrotation Xrotation
			JOINT Chest2
			{
				OFFSET -0.00036 2.05693 0.00216
				CHANNELS 3 Zrotation Yrotation Xrotation
				JOINT lowerneck
				{
					OFFSET 0 0 0
					CHANNELS 3 Zrotation Yrotation Xrotation
					JOINT Neck
					{
						OFFSET -0.03664 1.69515 0.31789
						CHANNELS 3 Zrotation Yrotation Xrotation
						JOINT Head
						{
							OFFSET 0.00932 1.70181 -0.46013
							CHANNELS 3 Zrotation Yrotation Xrotation
							End Site
							{
								OFFSET 0.01243 1.77620 -0.19377
							}
						}
					}
				}
				JOINT LeftCollar
				{
					OFFSET 0 0 0
					CHANNELS 3 Zrotation Yrotation Xrotation
					JOINT LeftShoulder
					{
						OFFSET 3.74344 0.81315 -0.36647
CHANNELS 3 Zrotation Xrotation Yrotation
						JOINT LeftElbow
						{
OFFSET 0 -4.971850 -0.000000
CHANNELS 3 Zrotation Xrotation Yrotation
							JOINT LeftWrist
							{
OFFSET 0 -3.358110 0.000000
CHANNELS 3 Zrotation Xrotation Yrotation
								JOINT lhand
								{
									OFFSET 0 0 0
CHANNELS 3 Zrotation Xrotation Yrotation
									JOINT LFingers
									{
OFFSET 0 -0.622780 0.000000
CHANNELS 3 Zrotation Xrotation Yrotation
										End Site
										{
OFFSET 0 -0.502100 0.000000
										}
									}
								}
								JOINT LThumb
								{
OFFSET 0 0.000000 0.000000
CHANNELS 3 Zrotation Xrotation Yrotation
									End Site
									{
OFFSET 0 -0.509760 0.509760
									}
								}
							}
						}
					}
				}
				JOINT RightCollar
				{
					OFFSET 0 0 0
					CHANNELS 3 Zrotation Yrotation Xrotation
					JOINT RightShoulder
					{
						OFFSET -3.75385 0.50666 -0.06525
CHANNELS 3 Zrotation Xrotation Yrotation
						JOINT RightElbow
						{
OFFSET 0 -4.964930 -0.000000
CHANNELS 3 Zrotation Xrotation Yrotation
							JOINT RightWrist
							{
OFFSET 0 -3.349290 0.000000
CHANNELS 3 Zrotation Xrotation Yrotation
								JOINT rhand
								{
									OFFSET 0 0 0
CHANNELS 3 Zrotation Xrotation Yrotation
									JOINT RFingers
									{
OFFSET 0 -0.638040 0.000000
CHANNELS 3 Zrotation Xrotation Yrotation
										End Site
										{
OFFSET 0 -0.514410 0.000000
										}
									}
								}
								JOINT RThumb
								{
OFFSET 0 0.000000 0.000000
CHANNELS 3 Zrotation Xrotation Yrotation
									End Site
									{
OFFSET 0 -0.522260 0.522260
									}
								}
							}
						}
					}
				}
			}
		}
	}
}
MOTION
Frames: 8
Frame Time: 0.008333333333333333
40.603753 15.053576 2.819438 166.274716 83.260154 161.582012 0.000000 0.000000 0.000000 -16.343686 2.455500 -34.490828 11.595962 18.214394 64.702061 0.933727 -5.827314 -17.238108 0.307470 3.564051 9.853451 0.000000 0.000000 0.000000 0.307063 11.804271 -36.113582 -7.794478 -15.964548 51.816613 -0.180929 10.800188 -10.105570 -1.547921 7.844854 -22.248277 -5.721647 2.860950 29.771462 -1.732653 2.909184 9.224340 0.331338 1.828902 -6.064409 11.030413 19.752471 -12.277667 -20.869161 30.069732 13.747657 -3.735761 13.085088 11.516334 0.000000 0.000000 0.000000 32.115040 -25.264176 -36.539737 58.306300 -55.837937 32.936463 29.504858 -39.611506 14.520277 0.000000 0.000000 0.000000 -7.125000 0.000000 0.000000 1.339628 13.411148 0.991865 0.000000 0.000000 0.000000 -10.729067 8.799469 30.111593 -41.958133 -49.187979 -19.908866 -9.624537 -13.916716 19.968393 0.000000 0.000000 0.000000 7.125000 0.000000 0.000000 18.383061 49.302810 -2.011710
40.839841 15.176191 2.961058 172.232788 81.218399 168.196013 0.000000 0.000000 0.000000 -15.582925 1.482584 -33.799051 11.283024 18.070492 63.696940 0.831371 -6.186192 -16.252419 0.248002 3.194607 8.821879 0.000000 0.000000 0.000000 -0.088901 14.187716 -35.067415 -7.119289 -15.429920 49.321275 0.138414 12.919114 -7.149984 -2.256593 9.347940 -26.916099 -5.254223 2.320437 30.190893 -1.559869 2.338230 9.065653 0.431089 1.563048 -6.411133 10.905230 19.802438 -12.698541 -21.138519 30.250533 13.790349 -3.717619 13.103137 11.678374 0.000000 0.000000 0.000000 32.693559 -27.166092 -36.616333 61.701194 -56.737160 35.762120 29.607819 -39.213279 16.624893 0.000000 0.000000 0.000000 -7.125000 0.000000 0.000000 1.175815 11.028581 0.929796 0.000000 0.000000 0.000000 -10.713602 9.107375 30.462562 -41.379212 -48.865772 -19.471878 -10.117398 -14.346217 20.228420 0.000000 0.000000 0.000000 7.125000 0.000000 0.000000 18.035901 49.624426 -2.118355
41.071135 15.292261 3.121293 175.031339 78.851481 171.679831 0.000000 0.000000 0.000000 -14.972148 0.399625 -33.414749 11.047690 17.958128 62.936034 0.692037 -6.363219 -14.837772 0.182291 2.749900 7.583293 0.000000 0.000000 0.000000 -0.378074 15.632633 -34.193932 -6.739927 -15.108292 47.882590 0.398043 14.192637 -4.134673 -2.880600 10.497737 -30.605543 -4.822215 1.720932 30.524172 -1.522788 1.701515 8.984989 0.434927 1.270555 -6.624588 10.815412 19.775610 -12.992896 -21.328782 30.192974 13.550150 -3.755288 13.053023 11.659238 0.000000 0.000000 0.000000 33.332561 -28.782090 -36.666386 65.094358 -57.512978 38.612139 30.088331 -38.005922 17.610500 0.000000 0.000000 0.000000 -7.125000 0.000000 0.000000 1.369810 9.837678 1.117337 0.000000 0.000000 0.000000 -10.664891 9.314766 31.127638 -40.942177 -48.618171 -19.143280 -10.246580 -15.069563 20.528479 0.000000 0.000000 0.000000 7.125000 0.000000 0.000000 18.044912 49.930831 -2.258784
41.293774 15.397610 3.303967 176.872424 76.172898 174.298134 0.000000 0.000000 0.000000 -14.130026 -0.914138 -33.453815 10.900326 17.885873 62.457395 0.521963 -6.874818 -13.004064 0.191595 2.818463 7.773814 0.000000 0.000000 0.000000 -0.249080 16.191168 -33.486012 -6.578070 -14.965929 47.259679 0.518297 13.865871 -0.878079 -2.354325 9.529899 -27.497996 -4.291721 1.116687 31.169939 -1.458023 1.054036 8.696218 0.408403 0.973180 -7.226542 10.713048 19.615932 -13.179157 -21.627686 29.964233 13.200158 -3.881215 12.939614 11.572111 0.000000 0.000000 0.000000 33.764961 -30.010944 -37.231666 67.991614 -58.081351 41.063715 30.850103 -37.258950 18.609469 0.000000 0.000000 0.000000 -7.125000 0.000000 0.000000 1.733714 8.570733 1.458056 0.000000 0.000000 0.000000 -10.707278 9.874622 32.028444 -40.762417 -48.515183 -19.008413 -10.491639 -15.732233 20.516478 0.000000 0.000000 0.000000 7.125000 0.000000 0.000000 17.809515 49.956900 -2.239062
41.515642 15.477518 3.508361 179.295229 73.411936 177.596972 0.000000 0.000000 0.000000 -12.679848 -2.149466 -34.054199 10.799828 17.835679 62.129883 0.347663 -7.635797 -11.015330 0.183342 2.757087 7.603205 0.000000 0.000000 0.000000 0.634317 16.309245 -32.769057 -6.515858 -14.910262 47.018609 0.467721 12.699731 0.250025 -1.663558 8.108253 -23.053892 -3.326473 0.458036 31.530913 -1.418170 0.484272 8.411236 0.090308 0.703602 -7.705525 10.931217 19.395648 -13.105509 -22.043231 29.593736 12.717805 -4.139827 12.795719 11.438921 0.000000 0.000000 0.000000 34.398942 -30.965476 -37.960346 70.788960 -58.552407 43.444190 31.594082 -36.474404 19.021021 0.000000 0.000000 0.000000 -7.125000 0.000000 0.000000 2.153350 7.957643 1.836416 0.000000 0.000000 0.000000 -10.486462 10.520678 32.900405 -40.843453 -48.561662 -19.069139 -9.857897 -16.260387 21.335143 0.000000 0.000000 0.000000 7.125000 0.000000 0.000000 18.778284 50.637497 -2.698076
41.748025 15.543256 3.707075 180.507083 70.459956 179.637811 0.000000 0.000000 0.000000 -11.454738 -3.294661 -34.554532 10.650270 17.759513 61.640428 0.199030 -8.565138 -9.303591 0.169280 2.650110 7.306152 0.000000 0.000000 0.000000 1.572420 15.800758 -31.697843 -6.460524 -14.860191 46.803177 0.372288 12.260862 -1.755135 -1.517202 7.778183 -22.042363 -2.336290 -0.284380 31.619377 -1.428309 -0.150882 8.265760 -0.263832 0.402742 -7.910575 10.893771 19.236397 -13.320785 -22.121754 29.282296 12.416565 -4.222355 12.655816 11.323939 0.000000 0.000000 0.000000 34.988953 -31.716432 -38.649379 73.213950 -58.905645 45.516528 32.025292 -36.043633 19.527580 0.000000 0.000000 0.000000 -7.125000 0.000000 0.000000 2.354583 7.294822 2.038482 0.000000 0.000000 0.000000 -10.354781 11.095985 33.907629 -41.063200 -48.687239 -19.234028 -9.545995 -16.580289 21.018666 0.000000 0.000000 0.000000 7.125000 0.000000 0.000000 18.922809 50.289778 -2.547881
41.987422 15.615311 3.894614 179.332548 67.309335 179.300462 0.000000 0.000000 0.000000 -11.232308 -4.322184 -34.607682 10.399483 17.628421 60.815416 0.083069 -9.732299 -8.165156 0.111056 2.147826 5.914292 0.000000 0.000000 0.000000 1.912935 14.596331 -30.473757 -6.383822 -14.790279 46.503539 0.181416 10.953112 -4.487943 -0.899609 6.037917 -16.896657 -1.787260 -0.981975 31.661466 -1.606832 -0.871866 8.128364 -0.519166 0.067385 -8.093866 10.606771 19.086218 -13.686137 -21.896539 29.049058 12.484449 -4.147343 12.525697 11.283945 0.000000 0.000000 0.000000 35.257435 -32.228406 -39.603440 75.140283 -59.148721 47.167882 32.103195 -35.766615 20.115601 0.000000 0.000000 0.000000 -7.125000 0.000000 0.000000 2.316705 6.613591 2.036105 0.000000 0.000000 0.000000 -10.450295 11.806536 35.120119 -41.377153 -48.864942 -19.470198 -9.686334 -16.945131 20.661396 0.000000 0.000000 0.000000 7.125000 0.000000 0.000000 18.628788 49.972022 -2.355542
42.222402 15.642505 4.086267 177.398115 64.563818 178.214930 0.000000 0.000000 0.000000 -11.290921 -4.879206 -34.401997 10.102669 17.466894 59.830500 -0.066076 -11.418364 -7.010191 0.135710 2.373676 6.539510 0.000000 0.000000 0.000000 1.989366 13.435464 -29.536089 -6.338093 -14.748104 46.323894 -0.034213 10.055311 -7.575420 -0.876311 5.956935 -16.662570 -1.822806 -1.380080 31.773548 -1.876639 -1.420522 7.896082 -0.600897 -0.184008 -8.416668 10.825633 19.038704 -13.621457 -21.927316 29.007718 12.627525 -4.197483 12.507427 11.358238 0.000000 0.000000 0.000000 35.211838 -32.156735 -40.785428 76.510585 -59.301144 48.345243 31.660807 -35.092637 20.478821 0.000000 0.000000 0.000000 -7.125000 0.000000 0.000000 1.984209 6.301418 1.755605 0.000000 0.000000 0.000000 -10.700603 12.469616 36.530211 -41.479047 -48.922177 -19.546956 -9.712234 -17.345174 20.554289 0.000000 0.000000 0.000000 7.125000 0.000000 0.000000 18.556992 49.874008 -2.300062
